<?xml version="1.0" ?>
<!-- Uploaded to: SVG Repo, www.svgrepo.com, Generator: SVG Repo Mixer Tools -->
<svg width="800px" height="800px" viewBox="0 0 64 64" xmlns="http://www.w3.org/2000/svg">
<defs>
<style>.cls-1{fill:#756e78;}.cls-2{fill:#665e66;}.cls-3{fill:#eaafa5;}.cls-4{fill:#f1cbc6;}.cls-5{fill:#544f57;}.cls-6{fill:#e7ecf1;}.cls-6,.cls-7,.cls-8{fill-opacity:0.99;}.cls-7{fill:#f6f9f9;}.cls-8{fill:#dae4ea;}</style>
</defs>
<g data-name="Winter Avatar" id="Winter_Avatar-19">
<path class="cls-1" d="M42.8,48c0-2.87-3.27-4.08-3.27-4.08H24.47S21.2,45.12,21.2,48l-.07,4.12,2.45,1.78L32.66,53l8.44.71Z" id="path37315-2-9-3-0-0-8-8"/>
<path class="cls-2" d="M38.61,51.54a4.16,4.16,0,0,0,1-3.55H42.8a5.54,5.54,0,0,1,5.55,5.55v1A1.46,1.46,0,0,1,46.88,56H17.12a1.46,1.46,0,0,1-1.47-1.46v-1A5.54,5.54,0,0,1,21.2,48h3.24a4.16,4.16,0,0,0,.95,3.55s.95,1.32,6.64,1.32S38.61,51.54,38.61,51.54Z" id="path37815-7-81-6-6-4-7-79"/>
<path class="cls-3" d="M27.8,45.79l.64,2.83c.3,2,1.59,3.56,3.56,3.56s3.26-1.61,3.56-3.56l.64-2.83-4.88-5.36Z" id="path22987-26-8-2-2"/>
<path class="cls-3" d="M43.39,39.27a4.3,4.3,0,0,0,.89-8.51H19.72a4.3,4.3,0,0,0,.89,8.51Z" id="path114197-5-54-0"/>
<path class="cls-4" d="M19.64,31.71l-.1,1.23a12.5,12.5,0,1,0,24.92,0l-.18-2.19-7.36-9.93L22.43,25.63Z" id="path99362-0-74-2"/>
<path class="cls-3" d="M39.66,24.52a12,12,0,0,1,.53,2.64l.29,3.59.18,2.19A12.5,12.5,0,0,1,30.1,46.32a13.17,13.17,0,0,0,1.9.14A12.5,12.5,0,0,0,44.46,32.94l-.18-2.19Z" id="path101009-9-4-3"/>
<path class="cls-2" d="M33.08,26.29s5.2,6.23,11.2,4.46L44,27.16a11.82,11.82,0,0,0-4.87-8.64l-5.84,1.12Z" id="path113433-6-30-7"/>
<path class="cls-5" d="M32,16.23a13.17,13.17,0,0,0-1.9.14,12.13,12.13,0,0,1,5.21,2.15,11.87,11.87,0,0,1,4.88,8.64l.29,3.59,0,.16a7.88,7.88,0,0,0,3.78-.16L44,27.16A11.93,11.93,0,0,0,32,16.23Z" id="path101011-3-7-5"/>
<path class="cls-1" d="M32,16.23A11.93,11.93,0,0,0,20,27.16l-.38,4.55A23.37,23.37,0,0,0,39.11,18.52,12.09,12.09,0,0,0,32,16.23Z" id="path22989-64-8-8-9"/>
<path class="cls-6" d="M21.6,8a1.73,1.73,0,0,0-1.68,1.92l.61,11.28,9,1.79,14-1.79.61-11.28A1.7,1.7,0,0,0,42.4,8Z" id="path178524-4-6"/>
<path class="cls-7" d="M20.53,21.2H43.47a1.68,1.68,0,1,1,0,3.36H20.53a1.68,1.68,0,1,1,0-3.36Z" id="rect13142-8-2-9"/>
<path class="cls-6" d="M40.28,21.2a1.68,1.68,0,1,1,0,3.36h3.19a1.68,1.68,0,1,0,0-3.36Z" id="path178218-5-3"/>
<path class="cls-8" d="M39.21,8a1.7,1.7,0,0,1,1.68,1.92l-.6,11.28h3.18l.61-11.28A1.7,1.7,0,0,0,42.4,8Z" id="path178796-8-3"/>
<path d="M27.86,36.18a1,1,0,0,0,1-1V34a1,1,0,0,0-2,0v1.23A1,1,0,0,0,27.86,36.18Z"/>
<path d="M36.14,36.18a1,1,0,0,0,1-1V34a1,1,0,0,0-2,0v1.23A1,1,0,0,0,36.14,36.18Z"/>
<path d="M27.63,39.79a1,1,0,0,0,.24,1.39,7.93,7.93,0,0,0,8.26,0A1,1,0,0,0,35,39.55a5.85,5.85,0,0,1-3,.79,5.71,5.71,0,0,1-3-.8A1,1,0,0,0,27.63,39.79Z"/>
<path d="M20.32,47.12a6.54,6.54,0,0,0-5.67,6.46v1A2.47,2.47,0,0,0,17.12,57H46.88a2.47,2.47,0,0,0,2.47-2.46v-1a6.54,6.54,0,0,0-5.67-6.46,5.43,5.43,0,0,0-2.41-3.37c.23-.21.45-.41.66-.64a13.32,13.32,0,0,0,2-2.9A5.27,5.27,0,0,0,45.22,30L45,27.08a12.56,12.56,0,0,0-.3-1.82,2.67,2.67,0,0,0-.16-4.85L45.08,10a2.7,2.7,0,0,0-.66-2.12,2.67,2.67,0,0,0-2-.92H21.6a2.6,2.6,0,0,0-1.91.82A2.85,2.85,0,0,0,18.92,10l.56,10.44a2.67,2.67,0,0,0-.16,4.85,12.56,12.56,0,0,0-.3,1.82L18.78,30a5.27,5.27,0,0,0,1.28,10.2,13.32,13.32,0,0,0,2,2.9c.21.23.43.43.66.64A5.43,5.43,0,0,0,20.32,47.12ZM46.69,35a3.29,3.29,0,0,1-1.79,2.92,13.57,13.57,0,0,0,.56-5l0-.47A3.31,3.31,0,0,1,46.69,35ZM43.47,22.2a.68.68,0,1,1,0,1.36H20.53a.68.68,0,1,1,0-1.36ZM21,27.24a12,12,0,0,1,.29-1.68H32.36a22.26,22.26,0,0,1-11.62,5Zm14.31-1.68H42.7A12.3,12.3,0,0,1,43,27.24L43.21,30c-3.84.64-7.29-2.23-8.7-3.61C34.81,26.09,35.07,25.82,35.32,25.56ZM21.14,9.2A.61.61,0,0,1,21.6,9H42.4a.67.67,0,0,1,.52.24.72.72,0,0,1,.16.62L42.53,20.2H21.47L20.92,9.86A.83.83,0,0,1,21.14,9.2ZM17.31,35a3.31,3.31,0,0,1,1.27-2.59l0,.47a13.57,13.57,0,0,0,.56,5A3.29,3.29,0,0,1,17.31,35ZM20.54,33l0-.42a24.38,24.38,0,0,0,12.41-5c1.4,1.42,4.86,4.43,9.09,4.43A8.47,8.47,0,0,0,43.38,32L43.46,33a11.5,11.5,0,1,1-22.92,0ZM34.87,47.15l-.3,1.32c-.19,1.25-1,2.71-2.57,2.71s-2.38-1.46-2.59-2.78l-.28-1.25a13.14,13.14,0,0,0,2.87.31A13.78,13.78,0,0,0,34.87,47.15Zm-7.94-.69.52,2.31c.4,2.64,2.23,4.41,4.55,4.41a4.71,4.71,0,0,0,4.54-4.34l.53-2.38a14,14,0,0,0,2.56-1.37A4.29,4.29,0,0,1,41.57,47h-2a1,1,0,0,0-1,1.21,3.12,3.12,0,0,1-.68,2.63,1,1,0,0,0,1.42,1.42A4.76,4.76,0,0,0,40.63,49H42.8a4.55,4.55,0,0,1,4.55,4.55v1a.47.47,0,0,1-.47.46H17.12a.47.47,0,0,1-.47-.46v-1A4.55,4.55,0,0,1,21.2,49h2.17a4.71,4.71,0,0,0,1.31,3.26,1,1,0,0,0,1.42-1.42,3.12,3.12,0,0,1-.68-2.63,1,1,0,0,0-1-1.21h-2a4.29,4.29,0,0,1,1.94-1.94A13.69,13.69,0,0,0,26.93,46.46Z"/>
</g>
</svg>